<?xml version="1.0" encoding="utf-8"?>
<svg xmlns="http://www.w3.org/2000/svg"
width="500"
height="500"
viewBox="0 0 500 500">

<rect width="500" height="500" fill="#ffffff"/>

<g transform="scale(14.285714285714286)">
<g transform="translate(1,1)">


<g transform="translate(3.5,3.5)">

<path d="M-3.5 -3.5L3.5 -3.5L3.5 3.5L-3.5 3.5ZM-2.5 -2.5L-2.5 2.5L2.5 2.5L2.5 -2.5Z"
style="fill-rule:evenodd;fill:#000"/>
<path d="M-1.5 -1.5L1.5 -1.5L1.5 1.5L-1.5 1.5Z"
style="fill-rule:evenodd;fill:#000"/>

</g>


<g transform="translate(29.5,3.5)">
<g transform="rotate(90)">
<path d="M-3.5 -3.5L3.5 -3.5L3.5 3.5L-3.5 3.5ZM-2.5 -2.5L-2.5 2.5L2.5 2.5L2.5 -2.5Z"
style="fill-rule:evenodd;fill:#000"/>
<path d="M-1.5 -1.5L1.5 -1.5L1.5 1.5L-1.5 1.5Z"
style="fill-rule:evenodd;fill:#000"/>
</g>
</g>


<g transform="translate(3.5,29.5)">
<g transform="rotate(-90)">
<path d="M-3.5 -3.5L3.5 -3.5L3.5 3.5L-3.5 3.5ZM-2.5 -2.5L-2.5 2.5L2.5 2.5L2.5 -2.5Z"
style="fill-rule:evenodd;fill:#000"/>
<path d="M-1.5 -1.5L1.5 -1.5L1.5 1.5L-1.5 1.5Z"
style="fill-rule:evenodd;fill:#000"/>
</g>
</g>


<path d="M0 0h1v1h-1zM1 0h1v1h-1zM2 0h1v1h-1zM3 0h1v1h-1zM4 0h1v1h-1zM5 0h1v1h-1zM6 0h1v1h-1zM8 0h1v1h-1zM13 0h1v1h-1zM17 0h1v1h-1zM19 0h1v1h-1zM20 0h1v1h-1zM22 0h1v1h-1zM23 0h1v1h-1zM24 0h1v1h-1zM26 0h1v1h-1zM27 0h1v1h-1zM28 0h1v1h-1zM29 0h1v1h-1zM30 0h1v1h-1zM31 0h1v1h-1zM32 0h1v1h-1zM0 1h1v1h-1zM6 1h1v1h-1zM12 1h1v1h-1zM13 1h1v1h-1zM14 1h1v1h-1zM16 1h1v1h-1zM17 1h1v1h-1zM18 1h1v1h-1zM19 1h1v1h-1zM20 1h1v1h-1zM21 1h1v1h-1zM22 1h1v1h-1zM23 1h1v1h-1zM26 1h1v1h-1zM32 1h1v1h-1zM0 2h1v1h-1zM2 2h1v1h-1zM3 2h1v1h-1zM4 2h1v1h-1zM6 2h1v1h-1zM10 2h1v1h-1zM13 2h1v1h-1zM14 2h1v1h-1zM15 2h1v1h-1zM17 2h1v1h-1zM20 2h1v1h-1zM23 2h1v1h-1zM24 2h1v1h-1zM26 2h1v1h-1zM28 2h1v1h-1zM29 2h1v1h-1zM30 2h1v1h-1zM32 2h1v1h-1zM0 3h1v1h-1zM2 3h1v1h-1zM3 3h1v1h-1zM4 3h1v1h-1zM6 3h1v1h-1zM8 3h1v1h-1zM12 3h1v1h-1zM13 3h1v1h-1zM17 3h1v1h-1zM19 3h1v1h-1zM24 3h1v1h-1zM26 3h1v1h-1zM28 3h1v1h-1zM29 3h1v1h-1zM30 3h1v1h-1zM32 3h1v1h-1zM0 4h1v1h-1zM2 4h1v1h-1zM3 4h1v1h-1zM4 4h1v1h-1zM6 4h1v1h-1zM9 4h1v1h-1zM10 4h1v1h-1zM15 4h1v1h-1zM16 4h1v1h-1zM18 4h1v1h-1zM22 4h1v1h-1zM24 4h1v1h-1zM26 4h1v1h-1zM28 4h1v1h-1zM29 4h1v1h-1zM30 4h1v1h-1zM32 4h1v1h-1zM0 5h1v1h-1zM6 5h1v1h-1zM9 5h1v1h-1zM10 5h1v1h-1zM11 5h1v1h-1zM12 5h1v1h-1zM13 5h1v1h-1zM14 5h1v1h-1zM15 5h1v1h-1zM17 5h1v1h-1zM19 5h1v1h-1zM20 5h1v1h-1zM21 5h1v1h-1zM23 5h1v1h-1zM24 5h1v1h-1zM26 5h1v1h-1zM32 5h1v1h-1zM0 6h1v1h-1zM1 6h1v1h-1zM2 6h1v1h-1zM3 6h1v1h-1zM4 6h1v1h-1zM5 6h1v1h-1zM6 6h1v1h-1zM8 6h1v1h-1zM10 6h1v1h-1zM12 6h1v1h-1zM14 6h1v1h-1zM16 6h1v1h-1zM18 6h1v1h-1zM20 6h1v1h-1zM22 6h1v1h-1zM24 6h1v1h-1zM26 6h1v1h-1zM27 6h1v1h-1zM28 6h1v1h-1zM29 6h1v1h-1zM30 6h1v1h-1zM31 6h1v1h-1zM32 6h1v1h-1zM9 7h1v1h-1zM13 7h1v1h-1zM19 7h1v1h-1zM21 7h1v1h-1zM22 7h1v1h-1zM23 7h1v1h-1zM2 8h1v1h-1zM4 8h1v1h-1zM5 8h1v1h-1zM6 8h1v1h-1zM8 8h1v1h-1zM11 8h1v1h-1zM13 8h1v1h-1zM14 8h1v1h-1zM16 8h1v1h-1zM17 8h1v1h-1zM20 8h1v1h-1zM22 8h1v1h-1zM24 8h1v1h-1zM25 8h1v1h-1zM29 8h1v1h-1zM32 8h1v1h-1zM1 9h1v1h-1zM5 9h1v1h-1zM7 9h1v1h-1zM8 9h1v1h-1zM14 9h1v1h-1zM15 9h1v1h-1zM16 9h1v1h-1zM18 9h1v1h-1zM22 9h1v1h-1zM23 9h1v1h-1zM24 9h1v1h-1zM26 9h1v1h-1zM30 9h1v1h-1zM32 9h1v1h-1zM0 10h1v1h-1zM1 10h1v1h-1zM2 10h1v1h-1zM3 10h1v1h-1zM4 10h1v1h-1zM6 10h1v1h-1zM7 10h1v1h-1zM9 10h1v1h-1zM10 10h1v1h-1zM11 10h1v1h-1zM14 10h1v1h-1zM15 10h1v1h-1zM21 10h1v1h-1zM23 10h1v1h-1zM24 10h1v1h-1zM25 10h1v1h-1zM28 10h1v1h-1zM29 10h1v1h-1zM31 10h1v1h-1zM32 10h1v1h-1zM4 11h1v1h-1zM7 11h1v1h-1zM8 11h1v1h-1zM12 11h1v1h-1zM13 11h1v1h-1zM14 11h1v1h-1zM15 11h1v1h-1zM17 11h1v1h-1zM18 11h1v1h-1zM19 11h1v1h-1zM20 11h1v1h-1zM24 11h1v1h-1zM0 12h1v1h-1zM3 12h1v1h-1zM6 12h1v1h-1zM8 12h1v1h-1zM9 12h1v1h-1zM10 12h1v1h-1zM16 12h1v1h-1zM17 12h1v1h-1zM18 12h1v1h-1zM19 12h1v1h-1zM20 12h1v1h-1zM23 12h1v1h-1zM24 12h1v1h-1zM25 12h1v1h-1zM26 12h1v1h-1zM28 12h1v1h-1zM31 12h1v1h-1zM32 12h1v1h-1zM0 13h1v1h-1zM3 13h1v1h-1zM5 13h1v1h-1zM8 13h1v1h-1zM11 13h1v1h-1zM13 13h1v1h-1zM15 13h1v1h-1zM16 13h1v1h-1zM17 13h1v1h-1zM20 13h1v1h-1zM24 13h1v1h-1zM26 13h1v1h-1zM28 13h1v1h-1zM30 13h1v1h-1zM31 13h1v1h-1zM32 13h1v1h-1zM2 14h1v1h-1zM3 14h1v1h-1zM4 14h1v1h-1zM5 14h1v1h-1zM6 14h1v1h-1zM7 14h1v1h-1zM8 14h1v1h-1zM9 14h1v1h-1zM10 14h1v1h-1zM14 14h1v1h-1zM15 14h1v1h-1zM17 14h1v1h-1zM18 14h1v1h-1zM19 14h1v1h-1zM20 14h1v1h-1zM21 14h1v1h-1zM24 14h1v1h-1zM25 14h1v1h-1zM31 14h1v1h-1zM32 14h1v1h-1zM0 15h1v1h-1zM4 15h1v1h-1zM5 15h1v1h-1zM7 15h1v1h-1zM10 15h1v1h-1zM11 15h1v1h-1zM12 15h1v1h-1zM13 15h1v1h-1zM14 15h1v1h-1zM15 15h1v1h-1zM16 15h1v1h-1zM19 15h1v1h-1zM21 15h1v1h-1zM22 15h1v1h-1zM23 15h1v1h-1zM24 15h1v1h-1zM25 15h1v1h-1zM26 15h1v1h-1zM28 15h1v1h-1zM30 15h1v1h-1zM32 15h1v1h-1zM1 16h1v1h-1zM3 16h1v1h-1zM5 16h1v1h-1zM6 16h1v1h-1zM8 16h1v1h-1zM11 16h1v1h-1zM12 16h1v1h-1zM14 16h1v1h-1zM15 16h1v1h-1zM16 16h1v1h-1zM18 16h1v1h-1zM21 16h1v1h-1zM22 16h1v1h-1zM23 16h1v1h-1zM25 16h1v1h-1zM28 16h1v1h-1zM30 16h1v1h-1zM32 16h1v1h-1zM0 17h1v1h-1zM2 17h1v1h-1zM4 17h1v1h-1zM5 17h1v1h-1zM8 17h1v1h-1zM10 17h1v1h-1zM12 17h1v1h-1zM13 17h1v1h-1zM15 17h1v1h-1zM16 17h1v1h-1zM25 17h1v1h-1zM27 17h1v1h-1zM29 17h1v1h-1zM30 17h1v1h-1zM1 18h1v1h-1zM6 18h1v1h-1zM8 18h1v1h-1zM10 18h1v1h-1zM11 18h1v1h-1zM13 18h1v1h-1zM15 18h1v1h-1zM17 18h1v1h-1zM19 18h1v1h-1zM20 18h1v1h-1zM21 18h1v1h-1zM26 18h1v1h-1zM28 18h1v1h-1zM30 18h1v1h-1zM32 18h1v1h-1zM1 19h1v1h-1zM2 19h1v1h-1zM3 19h1v1h-1zM4 19h1v1h-1zM5 19h1v1h-1zM8 19h1v1h-1zM12 19h1v1h-1zM13 19h1v1h-1zM15 19h1v1h-1zM16 19h1v1h-1zM19 19h1v1h-1zM20 19h1v1h-1zM21 19h1v1h-1zM27 19h1v1h-1zM0 20h1v1h-1zM1 20h1v1h-1zM2 20h1v1h-1zM3 20h1v1h-1zM5 20h1v1h-1zM6 20h1v1h-1zM7 20h1v1h-1zM10 20h1v1h-1zM12 20h1v1h-1zM15 20h1v1h-1zM16 20h1v1h-1zM17 20h1v1h-1zM20 20h1v1h-1zM21 20h1v1h-1zM24 20h1v1h-1zM26 20h1v1h-1zM29 20h1v1h-1zM32 20h1v1h-1zM3 21h1v1h-1zM5 21h1v1h-1zM7 21h1v1h-1zM9 21h1v1h-1zM17 21h1v1h-1zM18 21h1v1h-1zM20 21h1v1h-1zM23 21h1v1h-1zM24 21h1v1h-1zM29 21h1v1h-1zM30 21h1v1h-1zM31 21h1v1h-1zM32 21h1v1h-1zM0 22h1v1h-1zM2 22h1v1h-1zM4 22h1v1h-1zM6 22h1v1h-1zM7 22h1v1h-1zM10 22h1v1h-1zM11 22h1v1h-1zM13 22h1v1h-1zM15 22h1v1h-1zM18 22h1v1h-1zM20 22h1v1h-1zM21 22h1v1h-1zM23 22h1v1h-1zM24 22h1v1h-1zM26 22h1v1h-1zM27 22h1v1h-1zM28 22h1v1h-1zM30 22h1v1h-1zM31 22h1v1h-1zM32 22h1v1h-1zM1 23h1v1h-1zM2 23h1v1h-1zM3 23h1v1h-1zM4 23h1v1h-1zM7 23h1v1h-1zM8 23h1v1h-1zM9 23h1v1h-1zM11 23h1v1h-1zM12 23h1v1h-1zM15 23h1v1h-1zM18 23h1v1h-1zM19 23h1v1h-1zM20 23h1v1h-1zM24 23h1v1h-1zM25 23h1v1h-1zM27 23h1v1h-1zM32 23h1v1h-1zM0 24h1v1h-1zM6 24h1v1h-1zM8 24h1v1h-1zM11 24h1v1h-1zM12 24h1v1h-1zM13 24h1v1h-1zM15 24h1v1h-1zM16 24h1v1h-1zM18 24h1v1h-1zM19 24h1v1h-1zM20 24h1v1h-1zM23 24h1v1h-1zM24 24h1v1h-1zM25 24h1v1h-1zM26 24h1v1h-1zM27 24h1v1h-1zM28 24h1v1h-1zM32 24h1v1h-1zM8 25h1v1h-1zM9 25h1v1h-1zM12 25h1v1h-1zM14 25h1v1h-1zM15 25h1v1h-1zM19 25h1v1h-1zM20 25h1v1h-1zM21 25h1v1h-1zM24 25h1v1h-1zM28 25h1v1h-1zM30 25h1v1h-1zM31 25h1v1h-1zM32 25h1v1h-1zM0 26h1v1h-1zM1 26h1v1h-1zM2 26h1v1h-1zM3 26h1v1h-1zM4 26h1v1h-1zM5 26h1v1h-1zM6 26h1v1h-1zM11 26h1v1h-1zM14 26h1v1h-1zM16 26h1v1h-1zM17 26h1v1h-1zM18 26h1v1h-1zM22 26h1v1h-1zM24 26h1v1h-1zM26 26h1v1h-1zM28 26h1v1h-1zM29 26h1v1h-1zM30 26h1v1h-1zM31 26h1v1h-1zM32 26h1v1h-1zM0 27h1v1h-1zM6 27h1v1h-1zM8 27h1v1h-1zM9 27h1v1h-1zM10 27h1v1h-1zM11 27h1v1h-1zM12 27h1v1h-1zM13 27h1v1h-1zM15 27h1v1h-1zM18 27h1v1h-1zM19 27h1v1h-1zM20 27h1v1h-1zM21 27h1v1h-1zM22 27h1v1h-1zM23 27h1v1h-1zM24 27h1v1h-1zM28 27h1v1h-1zM29 27h1v1h-1zM32 27h1v1h-1zM0 28h1v1h-1zM2 28h1v1h-1zM3 28h1v1h-1zM4 28h1v1h-1zM6 28h1v1h-1zM8 28h1v1h-1zM9 28h1v1h-1zM10 28h1v1h-1zM11 28h1v1h-1zM13 28h1v1h-1zM15 28h1v1h-1zM18 28h1v1h-1zM20 28h1v1h-1zM22 28h1v1h-1zM24 28h1v1h-1zM25 28h1v1h-1zM26 28h1v1h-1zM27 28h1v1h-1zM28 28h1v1h-1zM30 28h1v1h-1zM31 28h1v1h-1zM0 29h1v1h-1zM2 29h1v1h-1zM3 29h1v1h-1zM4 29h1v1h-1zM6 29h1v1h-1zM9 29h1v1h-1zM12 29h1v1h-1zM14 29h1v1h-1zM18 29h1v1h-1zM20 29h1v1h-1zM21 29h1v1h-1zM22 29h1v1h-1zM28 29h1v1h-1zM29 29h1v1h-1zM0 30h1v1h-1zM2 30h1v1h-1zM3 30h1v1h-1zM4 30h1v1h-1zM6 30h1v1h-1zM8 30h1v1h-1zM9 30h1v1h-1zM10 30h1v1h-1zM18 30h1v1h-1zM21 30h1v1h-1zM22 30h1v1h-1zM24 30h1v1h-1zM25 30h1v1h-1zM27 30h1v1h-1zM28 30h1v1h-1zM29 30h1v1h-1zM30 30h1v1h-1zM32 30h1v1h-1zM0 31h1v1h-1zM6 31h1v1h-1zM9 31h1v1h-1zM10 31h1v1h-1zM11 31h1v1h-1zM23 31h1v1h-1zM24 31h1v1h-1zM25 31h1v1h-1zM27 31h1v1h-1zM29 31h1v1h-1zM31 31h1v1h-1zM0 32h1v1h-1zM1 32h1v1h-1zM2 32h1v1h-1zM3 32h1v1h-1zM4 32h1v1h-1zM5 32h1v1h-1zM6 32h1v1h-1zM11 32h1v1h-1zM14 32h1v1h-1zM17 32h1v1h-1zM18 32h1v1h-1zM19 32h1v1h-1zM21 32h1v1h-1zM23 32h1v1h-1zM24 32h1v1h-1zM26 32h1v1h-1zM27 32h1v1h-1zM28 32h1v1h-1zM29 32h1v1h-1zM30 32h1v1h-1zM31 32h1v1h-1zM32 32h1v1h-1z" fill="#000"/>

</g>
</g>


<circle cx="250.0" cy="250.0" r="90.0"
fill="black"
stroke="red"
stroke-width="5.0"/>

<text x="250.0" y="231.55"
fill="white"
font-size="30.749999999999996"
font-family="Arial Black"
font-weight="900"
text-anchor="middle"
dominant-baseline="middle">HELLO</text>

<text x="250.0" y="268.45"
fill="white"
font-size="27.674999999999997"
font-family="Arial Black"
font-weight="900"
text-anchor="middle"
dominant-baseline="middle">WORLD</text>


</svg>
